PathFileType	4	(X/Y/Z)	D:\TRACE\v60_Jaco2_6-2-23\BothDRS_Motion1_4-platform.trc
DataRate	CameraRate	NumFrames	NumMarkers	Units	OrigDataRate	OrigDataStartFrame	OrigNumFrames
100.00	100.00	      67	5	mm	100.00	873	      6979
Frame#	Time	Left_Front			Right_Front			Left_Aft			Right_Aft			Post			
		X1	Y1	Z1	X2	Y2	Z2	X3	Y3	Z3	X4	Y4	Z4	X5	Y5	Z5	

873	8.720	-847.94940	40.54105	-630.03760	722.14612	40.81030	-635.43396	-756.03711	-14.00792	503.74985	685.83215	-16.14417	512.88202	-60.92263	1352.66272	-891.98676	
874	8.730	-847.61987	40.54958	-630.09430	722.66504	40.73312	-635.52972	-755.49030	-14.16031	503.60593	686.27130	-16.27645	512.30927	-60.47897	1352.67847	-893.15222	
875	8.740	-847.24982	40.33268	-630.24420	723.10358	40.68999	-635.55896	-755.06885	-14.03172	503.66974	686.65143	-16.46015	511.87717	-60.28810	1352.72803	-893.71075	
876	8.750	-846.97382	40.24453	-630.32123	723.26306	40.74318	-635.52747	-754.91589	-13.83601	503.52344	687.46545	-15.74333	512.73877	-59.71701	1352.74231	-894.12311	
877	8.760	-846.71478	40.06769	-630.44183	723.57947	40.53261	-635.38208	-754.42511	-14.13569	503.63068	687.67395	-15.79642	512.68329	-59.33173	1352.63049	-894.42615	
878	8.770	-846.31140	40.12396	-630.10785	723.83734	40.54282	-635.43103	-754.21869	-13.82882	503.41068	687.81689	-15.88388	512.69836	-58.77972	1352.48462	-894.39264	
879	8.780	-845.75812	40.12634	-630.40796	724.16473	40.53799	-635.46606	-753.77008	-13.73911	503.38785	687.91437	-15.98040	512.69812	-58.48796	1352.37610	-894.12195	
880	8.790	-845.10852	39.87760	-630.41675	724.81024	40.44262	-635.49731	-753.13904	-13.59037	503.45172	688.60693	-15.82352	512.77655	-58.10152	1352.22974	-893.17670	
881	8.800	-844.60596	39.81361	-630.49872	725.37592	40.28515	-635.65515	-752.79932	-13.48559	503.38852	689.56177	-15.47425	512.58795	-57.84542	1351.91101	-892.40192	
882	8.810	-844.18353	39.64045	-630.54218	726.10339	39.96054	-635.71118	-752.27948	-13.39749	503.32147	690.06018	-15.38559	512.55219	-57.66365	1351.72754	-892.14685	
883	8.820	-843.75696	39.47923	-630.66431	726.47107	39.75056	-635.72101	-751.85291	-13.31427	503.35107	690.24359	-15.44144	512.46155	-57.41210	1351.59399	-892.05420	
884	8.830	-843.30243	39.18222	-630.78290	726.74908	39.66256	-635.73126	-751.35590	-13.18813	503.27869	690.64105	-15.40639	512.33142	-56.95004	1351.17310	-892.32379	
885	8.840	-843.01215	39.34041	-630.69611	727.11865	39.52909	-635.72412	-750.90466	-13.05208	503.17795	691.03577	-15.25201	512.31293	-56.39172	1350.88684	-893.39935	
886	8.850	-842.33051	39.11694	-630.93622	727.69946	39.25510	-635.89679	-750.30042	-12.78518	503.11996	692.06238	-14.93345	512.33539	-55.15128	1350.67920	-894.93915	
887	8.860	-841.80621	38.82878	-631.03528	728.42822	39.05146	-635.93805	-749.79376	-12.63232	503.13019	691.59961	-15.19463	512.60754	-54.91223	1350.43140	-896.09967	
888	8.870	-841.15558	38.48735	-631.02167	728.89771	38.79174	-636.09583	-749.17548	-12.62606	503.09076	692.86700	-14.65194	512.25348	-54.45583	1350.08130	-897.72479	
889	8.880	-840.68103	38.16826	-630.85333	729.56512	38.53830	-635.91986	-748.71906	-12.59352	503.12912	692.40198	-15.24114	512.51953	-53.45717	1349.90259	-898.71393	
890	8.890	-840.21503	38.10836	-630.79492	729.96997	38.45011	-636.08600	-748.18939	-12.37573	503.14603	693.98828	-14.41398	512.18390	-53.08467	1349.69922	-899.63330	
891	8.900	-839.79578	38.02948	-631.02917	730.54602	38.41677	-636.14539	-747.57397	-12.11152	503.16095	694.71375	-14.10038	512.25073	-52.56250	1349.63696	-900.32318	
892	8.910	-838.73236	38.08928	-631.28632	731.14740	38.25789	-636.18689	-746.55133	-12.68127	503.51822	694.94049	-14.06010	512.24164	-52.06671	1349.18494	-900.63062	
893	8.920	-838.46320	37.63427	-631.42670	731.73004	38.05498	-636.36597	-746.23785	-12.11062	502.82346	695.54321	-13.90976	512.04144	-51.51681	1348.86646	-900.61560	
894	8.930	-837.78284	37.10560	-631.32794	732.49890	37.75987	-636.25519	-745.56885	-12.09531	502.62491	696.09802	-13.69331	512.08490	-50.96465	1348.54749	-900.28625	
895	8.940	-837.13379	36.82010	-631.18695	733.13763	37.46356	-636.33929	-745.25854	-11.73260	502.50562	697.30005	-13.38889	512.00183	-49.96705	1347.87598	-899.44092	
896	8.950	-836.45490	36.52052	-631.04034	733.69995	37.29116	-636.50043	-744.48279	-11.50056	502.65967	697.60846	-13.25571	511.98407	-49.76723	1347.60449	-899.34961	
897	8.960	-835.68951	36.46845	-631.30658	734.16064	37.10083	-636.62140	-743.80737	-11.34746	502.53201	697.94708	-13.28741	511.80258	-49.48269	1347.34949	-899.31134	
898	8.970	-835.02930	36.28321	-631.61951	734.97192	36.82792	-636.60352	-743.13831	-10.96141	502.30154	698.86761	-12.72607	511.74103	-48.93631	1346.87415	-899.47125	
899	8.980	-834.52716	36.08766	-631.79175	735.79242	36.42664	-636.64209	-742.48358	-10.83459	502.66190	699.78339	-12.63006	511.69922	-47.84718	1346.60315	-900.10260	
900	8.990	-833.88153	35.59320	-631.84174	736.31909	36.09761	-636.73810	-741.92010	-10.76172	502.61060	700.25568	-12.61170	511.58890	-47.20100	1346.21313	-900.95184	
901	9.000	-833.20831	35.28886	-631.63464	736.86414	35.95056	-636.91223	-741.23590	-10.50958	502.48849	700.78131	-12.45864	511.50671	-46.56778	1345.96582	-902.45880	
902	9.010	-832.21912	35.16676	-631.71777	737.68488	35.92715	-636.86688	-740.35919	-10.27935	502.43826	701.76965	-12.10153	511.42844	-45.62177	1345.59009	-904.16992	
903	9.020	-831.71191	34.93934	-632.11584	738.77618	35.52745	-636.82782	-739.68323	-10.00489	502.31754	702.32202	-11.87508	511.36142	-44.68695	1345.19568	-905.76801	
904	9.030	-831.13422	34.44078	-632.03790	739.42139	35.02735	-637.05762	-739.14099	-9.70761	502.27985	703.06207	-11.94896	511.34341	-44.37595	1344.86633	-907.48083	
905	9.040	-830.44220	33.87455	-632.16223	739.99585	34.79839	-637.11261	-738.23035	-9.59009	502.14352	703.58990	-11.85951	511.40833	-43.41752	1344.39893	-907.99304	
906	9.050	-829.45905	33.61063	-632.27026	740.67938	34.38459	-637.25610	-737.52551	-9.60467	502.05652	704.66205	-11.36467	511.32349	-42.36787	1344.10095	-908.76593	
907	9.060	-828.31409	33.84303	-632.28815	741.37836	34.24013	-637.23810	-736.83533	-9.35408	502.09378	704.23767	-11.82829	510.95889	-41.92298	1343.66406	-909.20551	
908	9.070	-827.86151	33.88341	-632.42908	742.22784	34.21456	-637.39996	-736.14490	-8.97596	502.14407	706.31696	-10.79708	511.22653	-41.31757	1343.29749	-909.34741	
909	9.080	-827.37952	33.54135	-632.46124	742.85278	34.06597	-637.57971	-735.13434	-8.73279	501.96695	707.36230	-10.52407	511.70752	-40.29345	1342.95752	-909.19672	
910	9.090	-826.53217	32.78878	-632.55743	743.72467	33.51878	-637.61804	-734.32642	-8.56645	501.82709	707.76477	-10.40537	511.63693	-39.45418	1342.31177	-909.10004	
911	9.100	-825.41864	31.92574	-632.72174	744.50269	33.11606	-637.84137	-733.67798	-8.32381	501.83682	708.51141	-10.16253	511.36926	-38.97924	1341.69666	-909.02173	
912	9.110	-824.75464	31.75741	-632.72583	745.34027	32.80094	-637.84399	-732.90173	-8.18301	501.67404	709.58380	-9.83042	511.36328	-38.33141	1341.25793	-908.82239	
913	9.120	-824.04883	31.59083	-632.68457	746.15216	32.50997	-637.93976	-732.01978	-7.87088	501.55945	710.30914	-9.62589	511.38153	-37.31273	1340.57556	-909.20654	
914	9.130	-823.31317	31.27868	-632.80109	746.92755	32.36012	-637.97211	-731.23376	-7.52909	501.53979	711.13599	-9.39857	511.18710	-36.69168	1340.32617	-910.48688	
915	9.140	-822.38898	30.91291	-632.97986	747.78607	31.98245	-638.15228	-730.48859	-7.18097	501.31918	712.19147	-9.27468	510.94638	-35.86253	1339.87805	-911.90637	
916	9.150	-821.54810	30.35667	-633.12091	748.71356	31.52198	-638.23157	-729.56866	-6.94544	501.12286	712.74994	-8.98385	510.89066	-34.65443	1339.45483	-913.50171	
917	9.160	-820.53510	30.25337	-633.08942	749.51349	31.19688	-638.22858	-729.03564	-6.49142	500.92834	713.27692	-8.83147	510.90112	-33.65281	1338.85083	-915.16541	
918	9.170	-819.80231	30.07395	-633.41071	750.54535	30.92790	-638.36664	-727.68250	-7.03338	501.04123	714.31592	-8.55457	510.76837	-33.32511	1338.42029	-916.78424	
919	9.180	-818.79651	29.92732	-633.54962	751.19800	30.64975	-638.44904	-727.25824	-6.01555	500.94922	715.37671	-8.26980	510.67090	-32.29898	1338.05103	-918.11859	
920	9.190	-818.06335	29.48730	-633.55530	752.10339	30.40922	-638.51733	-726.29480	-6.02276	500.93195	715.99640	-8.01089	510.65323	-31.11340	1337.56152	-919.19556	
921	9.200	-817.34552	29.14641	-633.65582	753.07495	30.02914	-638.60590	-725.19965	-5.87606	500.88058	716.96191	-7.70113	510.48917	-30.71026	1337.12549	-919.91479	
922	9.210	-816.31317	28.57204	-633.81238	753.90881	29.73785	-638.72943	-724.30603	-5.78420	500.75397	717.86108	-7.45181	510.33740	-29.74164	1336.70227	-920.69031	
923	9.220	-815.29675	27.96841	-633.92963	754.79510	29.33699	-638.96808	-723.54498	-5.53641	500.60016	718.57465	-7.18872	510.41174	-28.83412	1336.09363	-920.90546	
924	9.230	-814.60590	27.64146	-634.01440	755.83649	28.76768	-639.04797	-722.52722	-5.33222	500.52649	719.83673	-6.80715	510.44641	-27.76738	1335.55847	-920.38922	
925	9.240	-813.71411	27.33214	-634.08746	756.56195	28.54403	-639.07745	-721.66077	-4.93879	500.52054	720.42499	-6.51425	510.38666	-26.66939	1334.78845	-920.57001	
926	9.250	-812.69562	26.99746	-634.09918	757.39941	28.16076	-639.08728	-720.79828	-4.64592	500.58923	721.59735	-6.33979	510.10001	-25.99043	1334.42188	-920.86145	
927	9.260	-811.75500	26.63471	-634.17401	758.66089	27.83536	-639.14807	-719.65649	-4.44825	500.52353	722.48169	-6.09152	510.11920	-25.21074	1333.80713	-920.87195	
928	9.270	-810.95087	26.11586	-634.34985	759.37378	27.41324	-639.39044	-718.83240	-4.28484	500.31592	723.11121	-5.93740	510.08685	-24.59871	1333.37793	-921.61914	
929	9.280	-809.80933	25.98894	-634.72760	760.24493	26.83377	-639.52887	-718.04596	-3.96946	500.32452	724.41833	-5.66324	509.38977	-23.68289	1332.86072	-922.46210	
930	9.290	-808.91846	25.74568	-634.76337	760.98029	26.53845	-639.58002	-717.04797	-3.77629	500.05209	725.48462	-5.19416	509.95712	-22.68154	1332.37305	-923.87823	
931	9.300	-807.99255	25.42264	-634.62616	762.06201	26.41151	-639.69055	-716.04187	-3.43662	500.12936	726.22998	-4.91523	509.63443	-21.47237	1331.82654	-925.37476	
932	9.310	-807.25470	25.03716	-634.77551	763.11987	26.04600	-639.72784	-715.32428	-3.07218	500.05356	727.35321	-4.66180	509.58524	-20.25777	1331.25305	-926.96716	
933	9.320	-806.07794	24.41948	-635.22595	763.95361	25.68808	-640.11902	-714.16180	-2.99051	499.84924	728.01007	-4.50163	509.59164	-19.78453	1330.88098	-928.64954	
934	9.330	-805.23102	23.91276	-635.07104	764.80841	25.12486	-640.15912	-713.21368	-2.74270	499.74936	728.56378	-4.40103	509.41962	-18.56365	1330.27100	-929.61188	
935	9.340	-804.27887	23.41483	-634.96606	765.70459	24.60481	-640.31189	-712.40881	-2.47443	499.68018	729.57623	-4.18626	509.05862	-17.61474	1329.80554	-930.51404	
936	9.350	-803.12567	23.38462	-635.22107	766.68622	24.32878	-640.55896	-711.38074	-2.21301	499.59656	730.74170	-3.51990	509.18680	-16.93088	1329.04993	-932.02667	
937	9.360	-802.27069	23.30554	-635.58038	767.82446	24.06243	-640.46777	-710.43567	-1.85700	499.53854	731.68475	-3.41582	509.15460	-15.97275	1328.37207	-932.19330	
938	9.370	-801.43878	22.92664	-635.42688	768.63129	23.92378	-640.37976	-709.60071	-1.57798	499.46637	732.52014	-3.32752	508.84012	-14.77010	1327.83484	-932.41187	
939	9.380	-800.38104	22.09451	-635.43945	769.83594	23.00498	-640.77118	-708.53210	-1.35817	499.18192	733.21014	-3.08388	508.69629	-14.20904	1327.47339	-932.82074	
